<?xml version="1.0" standalone="no"?>
<!DOCTYPE svg PUBLIC "-//W3C//DTD SVG 20010904//EN"
 "http://www.w3.org/TR/2001/REC-SVG-20010904/DTD/svg10.dtd">
<svg version="1.0" xmlns="http://www.w3.org/2000/svg"
 width="531.000000pt" height="531.000000pt" viewBox="0 0 531.000000 531.000000"
 preserveAspectRatio="xMidYMid meet">
<metadata>
Created by potrace 1.14, written by Peter Selinger 2001-2017
</metadata>
<g transform="translate(0.000000,531.000000) scale(0.100000,-0.100000)"
fill="#000000" stroke="none">
<path d="M2400 5128 c-25 -5 -83 -21 -130 -35 -47 -14 -85 -24 -86 -22 0 2 -8
-2 -17 -9 -9 -8 -21 -11 -27 -7 -5 3 -10 1 -10 -5 0 -6 -4 -8 -10 -5 -5 3 -10
1 -10 -4 0 -6 -7 -11 -15 -11 -9 0 -18 -7 -21 -15 -4 -8 -10 -12 -15 -10 -11
8 -89 -33 -89 -46 0 -6 -4 -8 -9 -5 -4 3 -19 -3 -31 -14 -12 -11 -27 -17 -31
-14 -5 3 -9 0 -9 -7 0 -7 -3 -10 -6 -6 -8 7 -84 -70 -84 -85 0 -6 -3 -8 -6 -5
-4 4 -23 -15 -42 -41 -20 -26 -42 -51 -49 -55 -7 -4 -13 -14 -13 -22 0 -8 -9
-20 -20 -28 -11 -8 -18 -16 -15 -18 2 -3 -8 -19 -24 -36 -16 -18 -26 -34 -23
-37 3 -3 0 -6 -6 -6 -7 0 -12 -9 -12 -20 0 -11 -4 -20 -8 -20 -12 0 -33 -50
-27 -61 4 -5 1 -9 -4 -9 -6 0 -11 -6 -11 -14 0 -8 -5 -27 -12 -43 -14 -35 -17
-52 -17 -128 0 -96 3 -145 9 -145 3 0 7 -17 8 -37 1 -35 8 -91 12 -103 2 -3 2
-8 1 -12 0 -5 3 -8 9 -8 5 0 7 -7 4 -15 -4 -8 -1 -15 5 -15 6 0 9 -10 7 -22
-2 -13 1 -28 6 -35 5 -6 11 -33 15 -60 3 -26 9 -50 14 -51 5 -2 7 -7 4 -12 -2
-4 4 -17 15 -30 18 -21 18 -56 -1 -45 -12 8 -60 -25 -53 -36 3 -5 1 -9 -3 -9
-9 0 -10 -189 -2 -205 3 -6 6 -26 8 -45 2 -19 6 -37 10 -40 3 -3 7 -21 9 -40
4 -39 7 -56 21 -116 6 -22 9 -58 7 -78 -4 -47 13 -94 36 -102 10 -3 16 -10 13
-15 -4 -5 2 -10 12 -10 10 -1 28 -3 40 -4 13 -1 35 4 49 12 30 15 33 14 38
-13 2 -11 11 -45 19 -76 8 -31 12 -59 9 -62 -3 -3 -1 -6 4 -6 5 0 10 -8 11
-17 1 -10 9 -36 18 -58 10 -22 16 -40 14 -40 -1 0 4 -11 11 -25 16 -29 19 -39
24 -105 2 -27 5 -50 6 -50 1 0 4 -25 6 -55 2 -30 5 -68 7 -85 3 -18 -2 -40
-13 -55 -18 -27 -51 -106 -48 -118 2 -13 -14 -43 -36 -66 -12 -12 -34 -37 -51
-56 -25 -30 -114 -89 -123 -82 -1 1 -19 -5 -40 -14 -20 -9 -44 -17 -52 -19 -8
-2 -16 -4 -17 -5 -2 -2 -6 -3 -10 -5 -19 -5 -69 -26 -85 -35 -10 -6 -22 -10
-28 -10 -14 0 -150 -65 -209 -99 -27 -16 -52 -27 -55 -24 -3 4 -6 2 -6 -4 0
-9 -33 -26 -72 -38 -5 -1 -9 -3 -10 -5 -2 -1 -10 -3 -18 -5 -8 -2 -61 -19
-118 -39 -56 -20 -109 -36 -117 -36 -7 0 -26 -5 -42 -12 -33 -13 -28 -12 -73
-22 -19 -5 -40 -12 -46 -17 -9 -7 -39 -16 -66 -18 -5 -1 -8 -368 -8 -816 l0
-815 2065 0 2065 0 0 918 0 919 -67 16 c-38 9 -102 25 -143 37 -41 12 -86 23
-99 26 -14 3 -28 7 -33 10 -5 3 -20 8 -35 10 -15 3 -31 8 -37 12 -6 3 -16 7
-22 8 -6 1 -41 16 -78 33 -37 17 -74 31 -81 31 -8 0 -17 5 -20 11 -4 6 -13 8
-21 5 -8 -3 -14 -1 -14 5 0 6 -4 8 -9 4 -5 -3 -12 -1 -16 5 -4 6 -10 8 -15 5
-5 -3 -11 -1 -15 5 -4 6 -11 8 -16 5 -5 -4 -9 -1 -9 5 0 6 -6 10 -12 9 -7 -1
-20 1 -28 4 -23 9 -171 59 -184 62 -6 1 -24 8 -41 14 -16 7 -44 15 -62 18 -22
4 -44 19 -69 50 -20 24 -55 57 -78 74 -31 21 -47 43 -60 78 -9 27 -33 66 -52
87 -32 36 -34 44 -35 112 -1 39 -1 80 -2 90 0 9 6 31 12 47 14 33 13 30 40
137 11 42 23 83 27 89 5 8 3 9 -5 4 -10 -6 -11 -3 -3 11 11 20 12 25 12 50 0
12 8 15 34 11 27 -4 42 1 68 23 l33 28 1 98 c1 55 6 120 11 147 6 27 7 47 1
47 -5 0 -5 8 1 18 5 10 6 24 2 31 -9 14 -7 34 7 101 5 25 10 52 10 60 1 8 3
35 6 59 7 56 -5 71 -58 72 -22 0 -35 3 -28 6 6 2 12 11 12 19 0 8 5 14 11 14
6 0 9 7 5 15 -3 8 -1 15 4 15 5 0 6 7 3 17 -4 9 -2 14 3 11 5 -4 10 6 10 20 2
44 11 77 20 75 5 -1 9 19 8 43 0 25 3 47 6 49 4 3 6 16 5 30 -2 14 0 27 4 29
4 3 6 25 6 50 -1 25 1 46 4 46 3 0 7 12 7 28 1 15 4 46 6 70 2 24 2 45 -1 47
-3 1 -6 28 -5 58 0 33 -4 53 -10 50 -5 -4 -7 3 -4 15 4 14 2 20 -5 15 -6 -4
-8 2 -5 15 4 14 2 20 -5 15 -6 -4 -8 0 -4 11 4 10 1 19 -8 22 -8 4 -13 10 -10
14 3 4 -4 19 -15 32 -11 14 -16 28 -13 32 3 3 1 6 -6 6 -6 0 -11 8 -9 18 2 9
-2 16 -8 15 -7 -1 -10 6 -7 17 3 12 0 20 -6 20 -7 0 -10 3 -8 8 6 9 -39 52
-47 45 -3 -4 -6 1 -6 11 0 9 -4 15 -9 12 -5 -3 -20 3 -33 14 -14 11 -29 16
-33 12 -5 -4 -5 -1 -1 6 4 7 12 10 17 7 5 -3 6 1 3 9 -3 9 -10 16 -16 16 -5 0
-6 5 -3 10 3 6 -1 10 -10 10 -9 0 -14 4 -11 9 3 5 -5 16 -19 25 -14 9 -25 23
-25 32 0 8 -4 13 -8 10 -5 -3 -15 6 -22 19 -7 13 -16 22 -21 20 -4 -3 -14 2
-22 10 -9 8 -18 15 -22 15 -3 0 -20 13 -38 30 -28 26 -78 47 -99 42 -5 -1 -8
3 -8 9 0 5 -4 7 -10 4 -5 -3 -10 -1 -10 4 0 6 -12 11 -26 11 -14 0 -23 4 -19
9 3 6 -4 8 -15 6 -11 -2 -20 0 -20 6 0 5 -3 8 -7 7 -5 -1 -18 3 -30 10 -13 7
-23 11 -23 8 0 -2 -21 2 -47 10 -25 8 -49 12 -51 9 -3 -3 -10 -1 -16 4 -6 5
-27 11 -46 12 -19 2 -38 8 -42 14 -5 6 -8 5 -8 -3 0 -8 -5 -10 -12 -6 -18 11
-254 12 -308 2z"/>
</g>
</svg>
